<?xml version="1.0" encoding="UTF-8"?>
<svg width="1439px" height="799px" viewBox="0 0 1439 799" version="1.1" xmlns="http://www.w3.org/2000/svg" xmlns:xlink="http://www.w3.org/1999/xlink">
    <!-- Generator: Sketch 57.1 (83088) - https://sketch.com -->
    <title>Login Background@3x</title>
    <desc>Created with Sketch.</desc>
    <defs>
        <radialGradient cx="61.444%" cy="38.0995%" fx="61.444%" fy="38.0995%" r="110.377961%" gradientTransform="translate(0.614440,0.380995),scale(0.666898,1.000000),translate(-0.614440,-0.380995)" id="radialGradient-1">
            <stop stop-color="#F5C8ED" offset="0%"></stop>
            <stop stop-color="#9393FF" offset="71.59%"></stop>
            <stop stop-color="#4846BB" offset="100%"></stop>
        </radialGradient>
        <radialGradient cx="51.4088889%" cy="50.5152189%" fx="51.4088889%" fy="50.5152189%" r="53.2112458%" gradientTransform="translate(0.514089,0.505152),scale(1.000000,0.999710),translate(-0.514089,-0.505152)" id="radialGradient-2">
            <stop stop-color="#FFEAFC" offset="0%"></stop>
            <stop stop-color="#FFEAFC" stop-opacity="0" offset="100%"></stop>
        </radialGradient>
        <radialGradient cx="68.2830933%" cy="89.4254997%" fx="68.2830933%" fy="89.4254997%" r="104.660153%" gradientTransform="translate(0.682831,0.894255),scale(0.620359,1.000000),translate(-0.682831,-0.894255)" id="radialGradient-3">
            <stop stop-color="#F5C8ED" offset="0%"></stop>
            <stop stop-color="#9393FF" offset="100%"></stop>
        </radialGradient>
        <linearGradient x1="52.8597361%" y1="45.7373226%" x2="50.4166867%" y2="50.5399878%" id="linearGradient-4">
            <stop stop-color="#9393FF" offset="0%"></stop>
            <stop stop-color="#8787F4" offset="22.78%"></stop>
            <stop stop-color="#6867D8" offset="63.83%"></stop>
            <stop stop-color="#4846BB" offset="100%"></stop>
        </linearGradient>
        <linearGradient x1="50.65976%" y1="46.5802358%" x2="48.35288%" y2="59.8660034%" id="linearGradient-5">
            <stop stop-color="#4846BB" offset="0.200479%"></stop>
            <stop stop-color="#281B66" offset="100%"></stop>
        </linearGradient>
        <linearGradient x1="50.2625333%" y1="53.0074604%" x2="49.8506533%" y2="48.286224%" id="linearGradient-6">
            <stop stop-color="#4846BB" offset="0.200479%"></stop>
            <stop stop-color="#433FAD" offset="22.89%"></stop>
            <stop stop-color="#352C88" offset="65.64%"></stop>
            <stop stop-color="#281B66" offset="100%"></stop>
        </linearGradient>
        <linearGradient x1="50.0757067%" y1="49.6921292%" x2="49.6825733%" y2="51.2960164%" id="linearGradient-7">
            <stop stop-color="#281B66" offset="0.73578%"></stop>
            <stop stop-color="#0C0C28" offset="100%"></stop>
        </linearGradient>
    </defs>
    <g id="Page-1" stroke="none" stroke-width="1" fill="none" fill-rule="evenodd" opacity="0.6">
        <g id="Sign-up" transform="translate(-1.000000, 0.000000)" fill-rule="nonzero">
            <g id="Login-Background" transform="translate(1.000000, -59.000000)">
                <g id="BACKGROUND" fill="url(#radialGradient-1)">
                    <rect id="Rectangle" x="0" y="0" width="1438" height="959"></rect>
                </g>
                <g id="OBJECTS">
                    <ellipse id="Oval" fill="url(#radialGradient-2)" cx="891.419441" cy="318.1962" rx="284.740346" ry="284.823"></ellipse>
                    <ellipse id="Oval" fill="#FFEAFC" opacity="0.7" cx="891.419441" cy="318.1962" rx="115.046605" ry="115.08"></ellipse>
                    <g id="Group">
                        <path d="M761.416778,360.7758 C716.165113,341.9794 673.214381,318.5798 636.207723,286.1656 C602.07723,256.2448 574.082557,220.1864 549.347537,182.4018 C522.503329,141.3566 499.494008,98.5852 467.856192,60.8006 C450.023968,39.319 430.65779,19.18 410.332889,0 L0,0 L0,196.4032 C35.8561917,190.2656 73.4380826,192.5672 108.527297,199.8556 C166.050599,211.7472 217.821571,240.3254 264.415446,275.0412 C313.501997,311.4832 357.603196,353.6792 406.114514,390.6966 C458.07723,430.2074 515.792277,463.0052 578.492676,481.9934 C639.850866,500.598 705.043941,505.5848 768.12783,493.3096 C833.320905,480.6508 891.611185,450.73 945.107856,412.1782 C945.874834,411.6028 946.641811,411.0274 947.217044,410.6438 C883.749667,400.862 821.049268,385.3262 761.416778,360.7758 Z" id="Path" fill="#FFEAFC" opacity="0.27"></path>
                        <path d="M1095.05193,405.4652 C1197.8269,410.452 1300.02663,399.903 1399.3502,373.4346 C1412.19707,369.9822 1425.23569,366.338 1437.89081,362.3102 L1437.89081,0 L1271.45672,0 C1247.10519,66.171 1215.46738,129.6568 1177.69374,188.923 C1127.84021,266.9856 1066.67377,338.7188 995.153129,397.6014 C1028.51664,401.4374 1061.88016,403.9308 1095.05193,405.4652 Z" id="Path" fill="#FFEAFC" opacity="0.32"></path>
                        <path d="M1438.08256,959 L1438.08256,314.7438 C1438.08256,314.7438 1432.13848,314.3602 1425.23569,313.4012 C1367.13715,306.1128 1333.1984,248.5728 1302.13582,205.6096 C1293.31558,193.3344 1286.22104,177.415 1276.05859,166.6742 C1266.27963,156.317 1256.50067,150.7548 1248.63915,137.9042 C1235.21704,115.8472 1213.35819,97.0508 1196.29294,77.8708 C1191.30759,72.3086 1184.98003,66.171 1177.502,66.9382 C1165.99734,67.8972 1162.16245,82.6658 1153.91744,90.5296 C1139.92011,103.9556 1115.56858,96.4754 1099.07856,106.6408 C1086.80692,114.3128 1082.58855,129.6568 1076.06924,141.5484 C1054.97736,180.292 1029.28362,216.1586 1002.24767,250.8744 C974.636485,286.3574 944.149134,319.347 916.537949,354.6382 C914.428762,357.3234 912.319574,360.0086 909.635153,361.9266 C900.431425,368.256 891.227696,368.4478 882.599201,376.6952 C874.16245,384.9426 869.368842,396.8342 861.890812,406.0406 C848.276964,422.919 828.143808,433.0844 815.105193,450.73 C812.229028,454.7578 809.544607,458.9774 806.093209,462.4298 C801.299601,467.033 794.972037,469.7182 789.027963,472.4034 C710.604527,508.0782 650.588549,577.8934 570.055925,611.6502 C564.687084,613.9518 557.592543,615.8698 552.223702,617.596 C500.069241,633.899 444.079893,631.981 390.007989,632.3646 C339.003995,632.7482 288,635.6252 236.996005,636.776 C160.490013,638.5022 83.9840213,639.8448 7.47802929,640.4202 C7.09454061,640.4202 6.26165786e-14,640.4202 6.26165786e-14,640.4202 C6.26165786e-14,640.4202 6.26165786e-14,959 6.26165786e-14,959 L1438.08256,959 Z" id="Path" fill="url(#radialGradient-3)" opacity="0.7"></path>
                        <path d="M0,544.1366 C0,544.1366 6.32756325,540.3006 13.9973369,534.9302 C21.4753662,529.7516 31.2543276,524.573 38.9241012,519.9698 C50.4287617,513.2568 61.3581891,514.5994 69.7949401,501.9406 C74.7802929,494.4604 78.0399467,485.6376 83.792277,478.7328 C93.5712383,467.033 124.442077,448.6202 127.893475,446.7022 C134.796272,443.2498 155.121172,437.304 158.956059,435.386 C185.416778,422.1518 214.561917,502.7078 218.780293,503.0914 C234.311585,504.6258 269.400799,500.4062 282.822903,494.6522 C294.519308,489.6654 304.106525,492.7342 315.802929,494.6522 C329.608522,496.9538 341.304927,493.6932 355.110519,494.2686 C365.848202,494.6522 375.627164,500.2144 385.406125,504.434 C395.185087,509.8044 404.964048,514.2158 415.701731,515.1748 C421.83755,514.5994 427.973369,514.983 434.109188,515.7502 C437.368842,518.6272 446.764314,519.2026 459.227696,525.7238 C471.691079,530.5188 487.22237,537.2318 502.753662,545.2874 C518.093209,551.0414 533.432756,559.6724 545.320905,564.0838 C557.209055,567.9198 565.645806,574.8246 567.563249,571.7558 C576.383489,570.2214 587.888149,569.8378 599.39281,565.4264 C610.89747,565.81 622.593875,559.6724 631.414115,563.892 C633.523302,565.0428 642.343542,565.2346 655.382157,569.2624 C668.420772,573.2902 685.486019,574.8246 704.08522,580.3868 C722.684421,585.5654 742.625832,591.5112 761.416778,592.2784 C780.207723,595.1554 797.656458,598.6078 811.462051,599.7586 C825.075899,600.9094 834.85486,600.7176 838.114514,597.8406 C847.893475,589.4014 913.086551,574.6328 919.414115,573.482 C926.700399,571.9476 951.435419,553.343 959.296937,553.7266 C966.199734,553.9184 983.456724,567.9198 988.825566,570.4132 C998.796272,575.0164 1036.76165,568.8788 1049.99201,578.8524 C1055.74434,583.2638 1062.26365,583.6474 1068.20772,588.6342 C1074.91877,594.0046 1107.70706,615.2944 1117.67776,616.8288 C1119.40346,617.2124 1121.12916,617.4042 1122.85486,617.2124 C1124.19707,617.0206 1125.73103,616.4452 1127.07324,616.637 C1131.86684,617.0206 1133.4008,624.1172 1138.00266,625.6516 C1142.22104,627.186 1146.43941,623.5418 1150.65779,622.7746 C1154.68442,622.0074 1159.28628,626.0352 1162.92943,623.9254 C1176.73502,615.678 1207.41411,632.5564 1222.37017,632.5564 C1234.06658,632.5564 1245.57124,629.6794 1256.88415,627.3778 C1283.34487,622.0074 1310.38083,619.1304 1337.22503,618.9386 C1348.53795,618.9386 1359.65912,620.0894 1370.78029,620.2812 C1381.51798,620.473 1389.76298,614.719 1398.96671,614.1436 C1411.0466,613.1846 1421.01731,615.678 1427.92011,611.842 C1434.8229,611.2666 1438.65779,610.883 1438.65779,610.883 L1438.65779,959 L0,959 L0,544.1366 Z" id="Path" fill="url(#linearGradient-4)" opacity="0.47"></path>
                        <path d="M0,498.68 L0,959 L1438.08256,959 L1438.08256,466.8412 C1438.08256,466.8412 1431.75499,467.2248 1421.78429,468.3756 C1407.40346,469.91 1392.83089,471.4444 1378.64181,474.5132 C1363.68575,477.7738 1349.88016,485.0622 1334.73236,487.172 C1327.63782,488.131 1320.92676,487.7474 1315.17443,491.7752 C1310.76431,495.0358 1306.16245,500.7898 1302.13582,504.2422 C1290.43941,513.8322 1286.98802,530.1352 1282.5779,543.753 C1280.27696,550.8496 1277.01731,557.179 1276.05859,564.4674 C1275.09987,572.3312 1242.31158,595.7308 1235.40879,592.662 C1230.42344,590.3604 1226.01332,586.7162 1220.83622,584.7982 C1202.23702,577.8934 1183.44607,590.744 1172.13316,604.7454 C1165.4221,612.9928 1122.08788,662.669 1105.40613,656.7232 C1100.42077,654.997 1096.2024,651.7364 1091.21704,649.8184 C1074.53529,643.2972 1053.63515,644.0644 1036.9534,650.3938 C1028.51664,653.6544 1020.46338,658.2576 1014.71105,665.3542 C1003.01465,680.1228 1007.04128,685.8768 986.716378,685.8768 C978.279627,685.8768 970.034621,686.644 961.789614,688.1784 C953.544607,689.7128 945.491345,691.6308 937.438083,694.1242 C929.38482,696.6176 921.523302,701.2208 913.661784,701.988 C905.800266,703.3306 895.062583,705.6322 884.3249,712.9206 C873.587217,716.1812 862.849534,716.7566 854.988016,709.4682 C848.468708,705.2486 837.347537,701.2208 826.034621,694.1242 C814.721704,689.1374 803.0253,688.1784 795.739015,680.6982 C792.095872,676.8622 777.906791,679.7392 763.909454,677.4376 C749.912117,677.2458 736.106525,672.6426 732.655126,673.6016 C723.451398,664.2034 717.123835,665.546 710.604527,656.7232 C704.08522,652.6954 697.182423,643.1054 686.636485,649.6266 C679.158455,646.1742 667.845539,653.079 655.95739,653.8462 C644.069241,659.4084 631.414115,663.2444 621.443409,662.2854 C611.472703,664.9706 603.994674,664.9706 602.07723,668.423 C598.242344,671.8754 590.57257,667.464 581.560586,671.1082 C572.548602,670.341 562.194407,667.464 552.990679,668.0394 C543.786951,671.3 535.733688,666.6968 531.131824,658.6412 C527.87217,655.7642 518.284953,648.8594 507.163782,650.5856 C495.850866,651.161 483.003995,646.9414 472.458056,645.5988 C461.912117,644.0644 454.050599,637.9268 452.708389,644.448 C446.57257,648.8594 437.368842,647.325 427.781625,649.6266 C418.002663,650.7774 407.648469,651.9282 398.828229,651.7364 C390.007989,651.5446 382.721704,650.202 379.462051,647.325 C377.352863,645.407 376.394141,642.53 375.435419,639.8448 C368.916112,622.9664 354.343542,608.7732 336.703063,604.5536 C322.130493,600.9094 309.091877,606.8552 296.436751,613.5682 C282.822903,620.8566 270.167776,625.268 255.595206,630.2548 C241.789614,634.858 232.77763,646.5578 217.629827,640.2284 C204.782956,634.858 199.414115,623.1582 193.278296,611.6502 C182.348868,590.9358 171.994674,572.3312 154.929427,556.0282 C150.327563,551.6168 69.4114514,492.1588 67.6857523,491.008 C66.5352863,490.2408 65.1930759,490.049 63.8508655,489.6654 C45.0599201,486.213 33.5552597,486.4048 15.1478029,491.7752 C10.9294274,493.3096 7.09454061,494.844 4.2183755,496.1866 C1.72569907,497.9128 0,498.68 0,498.68 Z" id="Path" fill="url(#linearGradient-5)" opacity="0.7"></path>
                        <path d="M0,770.8442 C0,770.8442 5.1770972,771.2278 13.8055925,771.2278 C24.9267643,771.2278 36.0479361,770.2688 47.1691079,768.9262 C58.2902796,767.3918 101.816245,757.61 112.362184,753.3904 C120.031957,751.4724 172.569907,729.0318 183.882823,725.5794 C195.195739,722.127 207.659121,717.5238 218.013316,717.5238 C228.36751,715.414 243.515313,715.2222 251.568575,702.1798 C256.170439,698.152 261.347537,698.3438 266.524634,698.152 C271.701731,698.152 277.070573,698.5356 282.24767,697.5766 C292.601864,695.4668 300.271638,689.1374 308.516644,682.9998 C316.186418,677.2458 325.773635,671.8754 334.977364,674.3688 C348.9747,677.8212 357.986684,691.2472 368.532623,699.8782 C408.990679,733.0596 463.446072,754.1576 508.697736,780.2424 C543.786951,800.3814 579.643142,812.273 619.525965,818.6024 C633.139814,820.7122 658.450067,831.2612 672.255659,830.3022 C687.403462,829.1514 730.929427,799.0388 748.569907,798.6552 C774.455393,798.2716 796.505992,793.6684 816.830892,776.5982 C825.075899,769.6934 835.238349,764.8984 845.209055,761.0624 C860.548602,755.1166 899.856192,772.7622 915.962716,769.3098 C951.627164,761.8296 944.724368,763.7476 978.85486,772.3786 C989.592543,775.0638 1010.10919,761.0624 1021.23036,761.8296 C1037.52863,762.9804 1048.45806,742.8414 1060.72969,734.4022 C1078.94541,721.7434 1107.32357,733.4432 1124.7723,730.9498 C1146.05593,727.881 1189.1984,722.8942 1194.95073,728.4564 C1196.48469,729.799 1231.95739,729.6072 1243.07856,724.6204 C1254.00799,720.5926 1276.63382,704.865 1329.36352,692.9734 C1348.53795,673.218 1438.08256,662.0936 1438.08256,662.0936 L1438.08256,959 L0,959 L0,770.8442 Z" id="Path" fill="url(#linearGradient-6)" opacity="0.67"></path>
                        <path d="M0,747.6364 L0,959 L1438.08256,959 L1438.08256,795.97 C1438.08256,795.97 1419.09987,795.2028 1402.03462,799.9978 C1380.94274,805.7518 1346.04527,826.2744 1343.74434,838.166 C1343.36085,840.4676 1291.58988,830.1104 1260.71904,823.9728 C1251.8988,822.2466 1224.28762,828.7678 1216.61784,828.1924 C1208.75632,827.617 1194.56724,840.8512 1190.9241,837.9742 C1184.98003,833.371 1136.66045,813.6156 1126.68975,819.7532 C1120.36218,823.5892 1091.60053,814.7664 1075.49401,830.8776 C1061.30493,845.0708 1031.20107,832.412 1027.17443,830.8776 C1009.15047,823.9728 990.359521,824.9318 971.376831,837.7824 C961.981358,844.3036 952.394141,850.0576 942.998668,852.3592 C935.904128,854.8526 925.166445,854.6608 913.47004,851.2084 C901.773635,849.4822 889.310253,846.0298 878.57257,843.5364 C867.834887,844.1118 859.206391,843.7282 855.17976,838.166 C850.961385,835.6726 841.949401,838.5496 830.44474,842.002 C795.54727,852.1674 761.992011,849.674 726.519308,854.0854 C716.740346,855.2362 706.577896,855.8116 697.565912,857.1542 C688.745672,856.9624 681.075899,858.8804 676.090546,858.8804 C657.874834,858.8804 611.089214,837.9742 592.873502,838.166 C577.533955,838.3578 562.194407,797.1208 551.648469,787.5308 C543.403462,780.2424 526.338216,766.241 515.408788,763.9394 C507.163782,762.2132 498.727031,764.8984 490.673768,761.8296 C485.688415,759.9116 480.12783,762.405 475.334221,765.0902 C452.708389,777.1736 427.58988,796.3536 401.704394,799.9978 C396.719041,800.765 390.007989,808.2452 383.296937,812.8484 C376.585885,819.3696 370.066578,823.2056 365.081225,822.822 C360.86285,820.1368 349.166445,821.2876 337.47004,821.6712 C325.581891,820.1368 313.885486,823.5892 309.667111,823.781 C300.655126,824.9318 289.725699,821.2876 279.17976,815.7254 C268.442077,809.7796 258.087883,800.765 249.459387,797.3126 C240.063915,791.7504 212.45273,796.1618 204.207723,800.3814 C195.962716,804.2174 166.050599,791.5586 152.628495,784.462 C139.206391,777.5572 102.391478,784.0784 89.5446072,780.0506 C76.1225033,775.6392 30.1038615,747.6364 0,747.6364 Z" id="Path" fill="url(#linearGradient-7)"></path>
                    </g>
                    <g id="Group" transform="translate(53.688415, 30.688000)" fill="#FFEAFC">
                        <ellipse id="Oval" cx="401.320905" cy="231.119" rx="1.91744341" ry="1.918"></ellipse>
                        <ellipse id="Oval" cx="313.885486" cy="275.6166" rx="1.91744341" ry="1.918"></ellipse>
                        <ellipse id="Oval" cx="171.227696" cy="148.4532" rx="1.91744341" ry="1.918"></ellipse>
                        <ellipse id="Oval" cx="419.344874" cy="196.7868" rx="2.87616511" ry="2.877"></ellipse>
                        <ellipse id="Oval" cx="397.486019" cy="174.538" rx="1.91744341" ry="1.918"></ellipse>
                        <ellipse id="Oval" cx="620.868176" cy="174.538" rx="3.83488682" ry="3.836"></ellipse>
                        <ellipse id="Oval" cx="962.364847" cy="117.7652" rx="2.87616511" ry="2.877"></ellipse>
                        <ellipse id="Oval" cx="917.688415" cy="135.0272" rx="1.91744341" ry="1.918"></ellipse>
                        <ellipse id="Oval" cx="665.352863" cy="382.4492" rx="1.91744341" ry="1.918"></ellipse>
                        <ellipse id="Oval" cx="202.482024" cy="32.0306" rx="3.83488682" ry="3.836"></ellipse>
                        <ellipse id="Oval" cx="256.362184" cy="83.8166" rx="1.91744341" ry="1.918"></ellipse>
                        <ellipse id="Oval" cx="1007.23302" cy="33.9486" rx="1.91744341" ry="1.918"></ellipse>
                        <ellipse id="Oval" cx="442.737683" cy="361.3512" rx="1.91744341" ry="1.918"></ellipse>
                        <ellipse id="Oval" cx="154.737683" cy="311.8668" rx="3.83488682" ry="3.836"></ellipse>
                        <ellipse id="Oval" cx="803.600533" cy="81.8986" rx="1.91744341" ry="1.918"></ellipse>
                        <ellipse id="Oval" cx="47.3608522" cy="115.8472" rx="1.91744341" ry="1.918"></ellipse>
                        <ellipse id="Oval" cx="160.490013" cy="398.944" rx="1.91744341" ry="1.918"></ellipse>
                        <ellipse id="Oval" cx="1275.6751" cy="97.6262" rx="1.91744341" ry="1.918"></ellipse>
                        <ellipse id="Oval" cx="932.45273" cy="170.5102" rx="1.91744341" ry="1.918"></ellipse>
                        <ellipse id="Oval" cx="83.9840213" cy="249.9154" rx="1.91744341" ry="1.918"></ellipse>
                        <ellipse id="Oval" cx="315.802929" cy="440.9482" rx="2.87616511" ry="2.877"></ellipse>
                        <ellipse id="Oval" cx="1292.93209" cy="48.3336" rx="2.87616511" ry="2.877"></ellipse>
                        <ellipse id="Oval" cx="2.49267643" cy="308.0308" rx="1.91744341" ry="1.918"></ellipse>
                        <ellipse id="Oval" cx="1328.40479" cy="117.7652" rx="1.91744341" ry="1.918"></ellipse>
                        <ellipse id="Oval" cx="606.295606" cy="52.1696" rx="1.91744341" ry="1.918"></ellipse>
                        <ellipse id="Oval" cx="1309.03862" cy="178.5658" rx="2.87616511" ry="2.877"></ellipse>
                        <ellipse id="Oval" cx="635.440746" cy="416.7814" rx="1.91744341" ry="1.918"></ellipse>
                    </g>
                </g>
            </g>
        </g>
    </g>
</svg>