<?xml version="1.0" encoding="UTF-8"?>
<svg width="265px" height="82px" viewBox="0 0 265 82" version="1.1" xmlns="http://www.w3.org/2000/svg" xmlns:xlink="http://www.w3.org/1999/xlink">
    <!-- Generator: Sketch 57.1 (83088) - https://sketch.com -->
    <title>Group 16 Copy@3x</title>
    <desc>Created with Sketch.</desc>
    <defs>
        <polygon id="path-1" points="0 0.4185 53.0153438 0.4185 53.0153438 81.49995 0 81.49995"></polygon>
        <polygon id="path-3" points="0 81.5815 270.145 81.5815 270.145 0.5 0 0.5"></polygon>
    </defs>
    <g id="Page-1" stroke="none" stroke-width="1" fill="none" fill-rule="evenodd">
        <g id="Group-16-Copy">
            <g id="Group-15">
                <path d="M34.8051,37.19805 L37.3211,37.66405 C37.0111,38.79305 35.9541,39.25255 35.3716,38.98505 C34.8996,38.76855 34.6001,38.01005 34.8051,37.19805" id="Fill-1" fill="#000000"></path>
                <g id="Group-5" transform="translate(0.000000, 0.081500)">
                    <mask id="mask-2" fill="white">
                        <use xlink:href="#path-1"></use>
                    </mask>
                    <g id="Clip-4"></g>
                    <path d="M46.14425,26.46445 C45.40225,26.74145 45.35225,26.70995 44.87875,26.14345 C44.79475,26.04345 44.51975,26.10295 44.33275,26.08895 C44.34425,26.23645 44.29875,26.45795 44.37725,26.51895 C44.69875,26.76945 45.03425,27.03745 45.40975,27.17395 C45.97125,27.37845 46.21375,27.12395 46.14425,26.46445 M36.39175,14.78895 C36.47075,14.63495 36.50075,14.53595 36.56175,14.46395 C36.99325,13.95395 37.39675,13.41395 37.87575,12.95195 C38.46975,12.37845 38.54275,11.72595 38.33875,10.99145 C37.82625,9.14895 37.34025,7.29795 36.77525,5.47145 C36.56775,4.80095 36.20325,4.16895 35.84425,3.55845 C35.59675,3.13745 35.35275,3.11595 35.02375,3.47095 C34.66375,3.85945 34.32475,4.28945 34.07575,4.75445 C32.45325,7.78095 31.73225,11.05195 31.51525,14.45295 C31.50725,14.57445 31.53475,14.69795 31.55525,14.92545 C31.69825,14.77495 31.78425,14.71695 31.82475,14.63595 C32.04525,14.19895 32.25525,13.75645 32.46625,13.31545 C33.29175,11.58795 34.10775,9.85645 34.94975,8.13745 C35.06875,7.89545 35.31225,7.71445 35.49825,7.50495 C35.58175,7.79245 35.72075,8.07695 35.74075,8.36895 C35.84075,9.83445 35.91025,11.30245 35.98575,12.76995 C35.99025,12.86195 35.95175,12.95595 35.93275,13.04945 C35.88675,13.06645 35.84075,13.08345 35.79475,13.10045 C35.55775,12.68095 35.32125,12.26095 35.08425,11.84045 C35.04575,11.83495 35.00725,11.82895 34.96875,11.82345 C34.90975,12.32795 34.83525,12.83095 34.79375,13.33745 C34.66975,14.86045 34.58875,16.38845 34.42575,17.90745 C34.36825,18.44895 34.12475,18.96995 33.96625,19.50045 C33.98825,19.51545 34.00975,19.53045 34.03125,19.54545 C35.51075,17.69745 36.98975,15.84945 38.46875,14.00145 C38.45675,13.96795 38.44425,13.93395 38.43125,13.90045 C37.78025,14.18395 37.12925,14.46795 36.39175,14.78895 M49.91275,3.83145 C49.84525,3.69895 49.76275,3.57245 49.71425,3.43345 C49.65025,3.25245 49.64025,3.04845 49.55725,2.87895 C49.46075,2.68195 49.30975,2.51145 49.18275,2.32945 C49.02675,2.49795 48.79675,2.64095 48.72725,2.83945 C48.31475,4.01595 47.87975,5.18895 47.56825,6.39295 C47.20425,7.79895 46.98725,9.24295 46.65275,10.65695 C46.42125,11.63645 46.73925,12.33945 47.54875,12.86645 C47.81975,13.04245 48.10225,13.20045 48.46575,13.41795 C48.84825,11.41145 49.07975,9.43845 49.90875,7.63095 C49.95775,7.63595 50.00675,7.64145 50.05575,7.64595 C50.05575,7.91345 50.05575,8.18145 50.05575,8.44895 C50.05725,10.66395 50.05375,12.87945 50.07125,15.09445 C50.07225,15.26395 50.18875,15.46145 50.30775,15.59595 C51.45925,16.90145 52.36825,18.35145 52.97675,19.98495 C53.02225,20.10695 53.02375,20.24545 53.00075,20.39645 C50.80025,17.18495 47.86575,15.04245 44.06775,14.06945 C46.49425,16.19295 48.30325,18.71695 49.30975,21.77195 C49.26325,21.81145 49.21725,21.85095 49.17125,21.89095 C48.90725,21.60195 48.67025,21.28145 48.37325,21.03245 C47.96625,20.69145 47.54325,20.34545 47.07325,20.10745 C46.16725,19.64845 45.50875,20.09045 45.62175,21.10595 C45.69975,21.80495 45.86925,22.51695 46.13675,23.16595 C46.67625,24.47195 47.39275,25.68995 48.29475,26.78795 C48.38875,26.90295 48.48475,27.01795 48.59375,27.11795 C49.13025,27.60895 49.43975,27.53045 49.71125,26.86445 C49.82825,26.57695 49.97375,26.29795 50.14075,26.03645 C50.21025,25.92745 50.39025,25.79295 50.48225,25.81695 C50.60625,25.84895 50.72325,26.00745 50.78975,26.13895 C50.85375,26.26595 50.85375,26.42645 50.87325,26.57345 C50.89125,26.70595 50.88775,26.84145 50.90925,26.97295 C51.30075,29.41745 49.88275,30.86045 48.07775,32.08745 C48.02575,32.12295 47.94525,32.11695 47.82975,32.13995 C47.87275,31.76895 47.95275,31.43445 47.94175,31.10345 C47.91325,30.25995 47.88925,29.41245 47.77575,28.57795 C47.69575,27.99145 47.54275,27.91395 46.94525,27.98945 C45.36075,28.18995 44.16925,27.45245 43.09925,26.41495 C42.97775,26.29795 42.90125,26.13495 42.83525,26.03895 C43.48475,25.75845 44.08875,25.46645 44.71575,25.23845 C45.11475,25.09345 45.54875,25.04645 45.96625,24.95045 C46.07325,24.92595 46.17675,24.88345 46.28175,24.84945 C46.22325,24.73995 46.18775,24.60645 46.10225,24.52645 C45.68875,24.13995 45.16925,23.95445 44.62725,24.02395 C43.74775,24.13645 42.87775,24.32945 42.00625,24.49995 C41.45525,24.60795 40.91175,24.75745 40.35825,24.84995 C39.90175,24.92645 39.76325,25.05895 39.90825,25.49845 C40.08275,26.02695 40.31225,26.53695 40.53425,27.09395 C39.95275,26.97645 39.39825,26.85195 38.83975,26.75445 C36.59825,26.36395 34.49475,26.77645 32.53525,27.90645 C31.56325,28.46695 31.11825,29.44795 30.73075,30.43145 C29.93525,32.44845 29.85425,34.54845 30.17675,36.66345 C30.75075,40.43145 32.54975,43.63995 34.89375,46.55895 C35.98825,47.92195 37.22275,49.17445 38.42125,50.45145 C38.71625,50.76545 38.72025,50.94245 38.41975,51.24495 C36.77825,52.89495 34.80725,53.90045 32.54425,54.40095 C30.43675,54.86645 28.32325,54.86895 26.20925,54.53895 C25.20175,54.38145 24.21475,54.08995 23.21775,53.86095 C23.07725,53.82945 22.93425,53.80895 22.72725,53.87945 C22.84525,53.98745 22.95925,54.10095 23.08175,54.20395 C25.59925,56.32845 27.93275,58.62695 29.90775,61.27695 C32.15925,64.29895 33.81675,67.60995 34.84925,71.23495 C35.46125,73.38445 35.87175,75.56945 36.02825,77.80045 C36.09525,78.76345 36.14825,79.72795 36.20075,80.69245 C36.21525,80.95395 36.20275,81.21645 36.20275,81.47895 C36.16275,81.48545 36.12225,81.49295 36.08175,81.49995 C35.94525,81.09595 35.80525,80.69295 35.67175,80.28795 C34.48825,76.69895 32.69625,73.43095 30.41175,70.43395 C26.25825,64.98495 21.06125,60.80895 14.89425,57.83745 C12.92375,56.88795 10.87675,56.12745 8.75075,55.62295 C6.48575,55.08545 4.18875,54.77545 1.85825,55.18345 C1.33325,55.27545 0.82075,55.43495 0.30075,55.55745 C0.23475,55.57295 0.16025,55.55295 -0.00025,55.54545 C0.14475,55.23595 0.24775,54.96695 0.38975,54.72095 C2.65925,50.80245 5.85475,47.90245 10.01775,46.11995 C10.86075,45.75895 11.81925,45.66795 12.72425,45.45245 C12.79275,45.43595 12.86175,45.41995 12.94875,45.39945 C12.48525,45.01595 11.27825,44.82795 9.92875,45.09345 C8.92525,45.29095 7.96075,45.68745 6.93525,46.00895 C6.98975,45.68645 7.02475,45.29595 7.12525,44.92295 C7.71725,42.71845 8.65925,40.65245 9.69625,38.63045 C12.36125,33.43495 15.55075,28.57095 19.10775,23.94895 C20.97525,21.52245 22.93675,19.16945 25.28775,17.18045 C25.76525,16.77645 26.28525,16.42245 26.85375,16.08145 C26.83925,17.78245 26.85025,19.43345 27.66775,20.99345 C27.71275,20.77945 27.78575,20.56745 27.79775,20.35195 C27.95225,17.54245 28.62475,14.83995 29.44825,12.16445 C30.28875,9.43445 31.29675,6.77295 32.71075,4.28445 C33.10425,3.59195 33.57025,2.92245 34.10425,2.33395 C34.88325,1.47495 35.85925,1.58195 36.56025,2.51445 C37.19775,3.36295 37.53325,4.34845 37.78175,5.35945 C38.13975,6.81445 38.45475,8.28045 38.78175,9.74295 C38.94575,10.47645 38.97225,10.47945 39.70675,10.51895 C40.43275,10.55845 41.15675,10.64445 41.87925,10.72995 C42.23125,10.77145 42.41675,10.65245 42.63025,10.34645 C43.41025,9.22545 44.22225,8.12445 45.07525,7.05795 C46.43425,5.36045 47.42025,3.45545 48.30825,1.48845 C48.41775,1.24595 48.54775,1.00995 48.69225,0.78645 C49.00925,0.29495 49.36475,0.29495 49.68725,0.79045 C50.11875,1.45245 50.21925,2.19995 50.18575,2.96745 C50.17375,3.24495 50.09475,3.51945 50.04625,3.79495 C50.00175,3.80695 49.95725,3.81895 49.91275,3.83145" id="Fill-3" fill="#242529" mask="url(#mask-2)"></path>
                </g>
                <path d="M56.6469,39.5818 C56.8394,39.6068 57.0114,39.6518 57.1824,39.6473 C57.6799,39.6348 58.1889,39.6598 58.6714,39.5613 C59.1719,39.4598 59.4124,38.8208 59.1494,38.3758 C59.0499,38.2068 58.8219,38.0123 58.6529,38.0128 C58.4634,38.0128 58.2459,38.1928 58.0934,38.3468 C57.9764,38.4653 57.9379,38.6628 57.8704,38.8273 C57.6609,39.3388 57.4759,39.4308 56.9494,39.3298 C56.2934,39.2033 55.8059,38.8693 55.5099,38.2593 C55.2779,37.7818 55.3444,37.4518 55.7854,37.1473 C56.2804,36.8058 56.7984,36.5083 57.5309,36.3618 C57.3659,36.5713 57.2604,36.6673 57.2039,36.7868 C57.1334,36.9358 57.1029,37.1038 57.0554,37.2638 C57.2179,37.2973 57.3914,37.3843 57.5399,37.3528 C57.8414,37.2878 58.1389,37.1813 58.4199,37.0518 C58.9139,36.8238 58.9444,36.7193 58.7119,36.1833 L59.7054,36.1833 L59.7779,36.0373 C58.9049,35.2073 58.0324,34.3773 57.1594,33.5473 C57.1724,33.5278 57.1854,33.5083 57.1984,33.4888 C57.3764,33.6038 57.5734,33.6983 57.7304,33.8373 C58.9304,34.8958 60.1479,35.9378 61.3074,37.0398 C61.8604,37.5653 61.6994,38.5903 61.0774,38.9833 C61.1184,38.6823 61.1579,38.3938 61.2009,38.0758 C60.7154,38.2063 60.2509,39.0688 60.4549,39.3998 C60.5324,39.5263 60.7364,39.5748 60.9644,39.7058 C60.8939,39.8553 60.8504,40.0913 60.7089,40.2208 C60.2654,40.6278 59.7759,40.9838 59.3239,41.3823 C59.1394,41.5448 58.9239,41.7448 58.8654,41.9658 C58.6944,42.6123 58.3634,43.0723 57.7439,43.3658 C57.2814,43.5853 56.8929,43.9728 56.4219,44.1598 C55.9124,44.3618 55.4739,44.5403 55.1054,45.0148 C54.5759,45.6958 53.6999,45.8138 52.8899,45.9088 C52.2144,45.9883 51.5249,45.9808 50.8429,45.9593 C50.4874,45.9483 50.4104,46.0728 50.4139,46.3923 C50.4449,49.0243 50.5664,51.6598 50.4584,54.2863 C50.3479,56.9693 50.0984,59.6553 49.7399,62.3178 C49.4574,64.4153 49.0084,66.5028 48.4704,68.5518 C47.5374,72.1078 46.1519,75.4868 43.8914,78.4293 C43.1629,79.3783 42.2664,80.1973 41.4434,81.0728 C41.3909,81.1293 41.3119,81.1603 41.1489,81.2643 C41.2239,81.0708 41.2509,80.9783 41.2934,80.8938 C42.7739,77.9938 44.0279,75.0018 44.9599,71.8798 C45.6159,69.6833 46.1624,67.4663 46.1514,65.1508 C46.1474,64.2798 46.1529,64.2788 45.3024,64.2098 C43.2514,64.0438 41.2869,63.5473 39.4669,62.5778 C37.9949,61.7938 36.7559,60.7533 36.1214,59.1408 C36.0854,59.0498 36.0709,58.9503 36.0324,58.8018 C36.2314,58.8018 36.3879,58.7903 36.5429,58.8038 C38.6729,58.9893 40.7289,58.7388 42.6449,57.7278 C44.8829,56.5473 46.4679,54.7488 47.5159,52.4673 C47.8064,51.8353 48.0454,51.1758 48.2644,50.5143 C48.3944,50.1233 48.4159,49.9533 47.8594,49.8923 C46.3599,49.7283 45.0059,49.1158 43.7234,48.3468 C40.4169,46.3648 37.8449,43.6423 35.8269,40.3878 C35.2034,39.3823 34.7089,38.2968 34.1474,37.2518 C33.9714,36.9248 34.0949,36.8118 34.4199,36.8233 C34.7594,36.8353 35.0984,36.8583 35.4454,36.8768 C35.2954,37.1788 35.0734,37.4388 35.0589,37.7098 C35.0449,37.9668 35.1904,38.2893 35.3714,38.4853 C35.6614,38.7988 36.1884,38.7498 36.5079,38.4638 C36.8709,38.1388 36.8804,37.6898 36.5729,36.9803 C37.4019,37.2603 38.2479,37.5013 39.0499,37.8443 C39.2794,37.9428 39.4579,38.3178 39.5304,38.5993 C40.2134,41.2408 41.9764,42.7798 44.4939,43.6108 C46.1299,44.1508 47.8074,44.4178 49.5154,44.5423 C49.5834,44.5473 49.6534,44.5178 49.7224,44.5043 C49.7424,44.4633 49.7624,44.4223 49.7829,44.3813 C49.2429,44.0458 48.7299,43.6543 48.1579,43.3868 C47.0179,42.8538 45.8549,42.3668 44.6839,41.9048 C43.8524,41.5773 43.6654,40.9948 44.2309,40.1498 C44.4574,40.3033 44.6854,40.4568 44.9119,40.6118 C46.7644,41.8778 48.7554,42.8538 50.9099,43.4928 C52.9364,44.0938 54.7809,43.6178 56.5199,42.5458 C56.7549,42.4008 57.0034,42.2058 57.1259,41.9713 C57.2399,41.7543 57.3164,41.3383 57.1964,41.2098 C56.7719,40.7578 56.6914,40.2268 56.6469,39.5818" id="Fill-6" fill="#242529"></path>
                <path d="M54.42915,30.30595 C52.97215,29.85745 51.71565,26.94445 52.20165,25.50395 C52.31465,25.74395 52.38515,25.89995 52.46065,26.05395 C52.64165,26.42245 52.79865,26.80595 53.01565,27.15145 C53.16665,27.39195 53.35565,27.38445 53.51815,27.09745 C53.86865,26.47845 53.96715,25.80345 53.93565,25.11895 C53.90065,24.36495 53.78665,23.61395 53.70665,22.86195 C53.67865,22.60345 53.64815,22.34495 53.61865,22.08695 L53.78365,22.04645 C53.94265,22.58045 54.13715,23.10745 54.25315,23.65045 C54.52615,24.92345 54.35365,26.19245 54.14515,27.45645 C54.00215,28.32495 54.09665,29.17045 54.36515,30.00295 C54.39515,30.09495 54.40565,30.19245 54.42915,30.30595" id="Fill-8" fill="#242529"></path>
                <path d="M46.14425,26.54595 C46.21375,27.20545 45.97125,27.45995 45.40975,27.25545 C45.03425,27.11895 44.69875,26.85095 44.37725,26.60045 C44.29875,26.53945 44.34425,26.31795 44.33275,26.17045 C44.51975,26.18445 44.79475,26.12495 44.87875,26.22495 C45.35225,26.79145 45.40225,26.82295 46.14425,26.54595" id="Fill-10" fill="#242529"></path>
                <path d="M35.0583,36.89825 L37.5743,37.36425 C37.2643,38.49325 36.2073,38.95275 35.6248,38.68525 C35.1528,38.46875 34.8538,37.71025 35.0583,36.89825" id="Fill-12" fill="#242529"></path>
                <mask id="mask-4" fill="white">
                    <use xlink:href="#path-3"></use>
                </mask>
                <g id="Clip-14"></g>
                <text id="hushkey" mask="url(#mask-4)" font-family="Coyote-SemiBoldDEMO, Coyote" font-size="34.5895" font-weight="500" fill="#242529">
                    <tspan x="73.6438" y="41.55615">hushk</tspan>
                    <tspan x="213.869633" y="41.55615" letter-spacing="-0.345894992">e</tspan>
                    <tspan x="238.635715" y="41.55615">y</tspan>
                </text>
            </g>
        </g>
    </g>
</svg>